<svg width="198" height="49" viewBox="0 0 198 49" fill="none" xmlns="http://www.w3.org/2000/svg">
    <path fill-rule="evenodd" clip-rule="evenodd" d="M27.088 6.96296H34.1011C34.1011 6.96296 34.3678 14.6676 27.088 14.6676C25.7352 14.6676 24.5405 14.0214 23.816 13.0333C23.5269 12.6384 22.9395 12.5883 22.5883 12.9331L21.0844 14.4076V19.3934L19.0832 20.0243V9.59217C18.4859 9.25894 18.0827 8.63873 18.0827 7.92603C18.0827 6.82813 19.0372 5.94401 20.1929 6.00277C21.2265 6.05477 22.063 6.88783 22.085 7.88367C22.101 8.61367 21.6938 9.25219 21.0844 9.59217V11.2092L24.0992 8.25252V8.25445C24.8327 7.46184 25.8993 6.96296 27.088 6.96296ZM16.342 13.0091C16.6328 12.6128 17.2234 12.5635 17.5766 12.9086L18.0827 13.4045V10.1943L16.0573 8.21177V8.21272C15.3198 7.41818 14.2472 6.91746 13.052 6.91746H6C6 6.91746 6.4246 14.6505 13.052 14.6505C14.4123 14.6505 15.6136 14.0018 16.342 13.0091ZM16.962 20.737L16.9509 20.7409C16.1052 21.0161 15.3604 21.3966 14.7355 21.8592C13.412 20.8529 13.1953 19.694 13.1953 19.045C13.1953 18.1265 13.411 17.2525 14.422 16.4161C15.4793 15.517 16.8552 15.4639 17.3582 16.2539C17.8208 16.9801 17.3682 18.141 16.3482 18.848C15.9934 19.0933 15.6174 19.2497 15.2576 19.3212C15.3826 19.7085 15.7625 20.1025 16.3421 20.4347C16.5467 20.5516 16.713 20.6375 16.962 20.737ZM22.8736 16.6724C23.357 15.714 24.6804 15.7807 25.6956 16.8689C26.6683 17.8823 26.8746 18.9412 26.8775 20.0552C26.8775 20.9539 26.6063 22.6588 24.786 23.9728C24.3704 24.2724 24.0575 24.4538 23.4355 24.7241C24.7666 25.5361 25.5368 26.8186 25.5368 28.2825C25.5368 30.4016 24.0778 31.6127 22.429 32.3323C23.2447 33.0379 23.6748 33.9588 23.6748 34.9078C23.6748 35.5244 23.6109 36.1715 22.7874 36.9251L22.7864 36.9239C22.738 36.9707 22.6779 37 22.6111 37C22.4561 37 22.3301 36.8479 22.3301 36.6607C22.3301 36.5986 22.3447 36.5413 22.3689 36.491L22.3679 36.4898C22.9908 35.2272 22.2904 34.4304 21.1773 33.8664V35.8287C21.1773 36.4746 20.7433 36.9988 20.2085 36.9988C19.6738 36.9988 19.2398 36.4746 19.2398 35.8287V33.8652C18.0812 34.4526 17.4844 35.1313 18.0463 36.4898C18.0705 36.5401 18.085 36.5975 18.085 36.6595C18.085 36.8467 17.9591 36.9988 17.8041 36.9988C17.7373 36.9988 17.6762 36.9696 17.6278 36.9228L17.6268 36.9239C16.7763 36.2031 16.72 35.4777 16.72 34.8926C16.72 33.8734 17.158 33.0063 17.9727 32.3241C18.3636 31.9984 18.6027 31.8704 19.5879 31.3428L19.5883 31.3426L19.589 31.3422C19.7681 31.2462 19.9719 31.1371 20.2057 31.0112C20.559 30.8208 20.8785 30.6517 21.1668 30.4991C23.0317 29.5123 23.5963 29.2135 23.5963 28.2801C23.5963 27.8355 23.0713 27.1708 22.0696 26.759C21.8357 26.6645 21.612 26.5752 21.3975 26.4896L21.1754 26.4009V27.8928L19.2379 28.9366V26.3997C18.956 26.5121 18.6576 26.6314 18.3408 26.759C17.3391 27.1697 16.814 27.8355 16.814 28.2801C16.814 28.8874 17.0504 29.242 17.8167 29.71C17.1511 30.1044 16.5815 30.597 16.1252 31.1645C15.3996 30.4671 14.8775 29.5146 14.8775 28.2801C14.8775 26.5471 15.9567 25.0681 17.7702 24.3239C19.0684 23.8032 20.0565 23.4124 20.8237 23.1104C23.0616 22.227 23.3241 22.117 23.8501 21.7379C24.4072 21.3353 24.7724 20.8579 24.8925 20.3887C24.5467 20.3021 24.1853 20.1125 23.8443 19.8153C22.8639 18.9588 22.4299 17.5523 22.8736 16.6724Z" fill="url(#paint0_linear_495_845)"/>
    <path d="M66.7816 22.22C66.7816 22.62 66.7549 22.98 66.7016 23.3H58.6016C58.6682 24.1 58.9482 24.7267 59.4416 25.18C59.9349 25.6333 60.5416 25.86 61.2616 25.86C62.3016 25.86 63.0416 25.4133 63.4816 24.52H66.5016C66.1816 25.5867 65.5682 26.4667 64.6616 27.16C63.7549 27.84 62.6416 28.18 61.3216 28.18C60.2549 28.18 59.2949 27.9467 58.4416 27.48C57.6016 27 56.9416 26.3267 56.4616 25.46C55.9949 24.5933 55.7616 23.5933 55.7616 22.46C55.7616 21.3133 55.9949 20.3067 56.4616 19.44C56.9282 18.5733 57.5816 17.9067 58.4216 17.44C59.2616 16.9733 60.2282 16.74 61.3216 16.74C62.3749 16.74 63.3149 16.9667 64.1416 17.42C64.9816 17.8733 65.6282 18.52 66.0816 19.36C66.5482 20.1867 66.7816 21.14 66.7816 22.22ZM63.8816 21.42C63.8682 20.7 63.6082 20.1267 63.1016 19.7C62.5949 19.26 61.9749 19.04 61.2416 19.04C60.5482 19.04 59.9616 19.2533 59.4816 19.68C59.0149 20.0933 58.7282 20.6733 58.6216 21.42H63.8816ZM80.4053 14.04V28H77.6053V22.06H71.6253V28H68.8253V14.04H71.6253V19.78H77.6053V14.04H80.4053ZM88.0813 28.18C87.0146 28.18 86.0546 27.9467 85.2013 27.48C84.3479 27 83.6746 26.3267 83.1813 25.46C82.7013 24.5933 82.4613 23.5933 82.4613 22.46C82.4613 21.3267 82.7079 20.3267 83.2013 19.46C83.7079 18.5933 84.3946 17.9267 85.2613 17.46C86.1279 16.98 87.0946 16.74 88.1613 16.74C89.2279 16.74 90.1946 16.98 91.0613 17.46C91.9279 17.9267 92.6079 18.5933 93.1013 19.46C93.6079 20.3267 93.8613 21.3267 93.8613 22.46C93.8613 23.5933 93.6013 24.5933 93.0812 25.46C92.5746 26.3267 91.8813 27 91.0013 27.48C90.1346 27.9467 89.1613 28.18 88.0813 28.18ZM88.0813 25.74C88.5879 25.74 89.0613 25.62 89.5013 25.38C89.9546 25.1267 90.3146 24.7533 90.5813 24.26C90.8479 23.7667 90.9813 23.1667 90.9813 22.46C90.9813 21.4067 90.7013 20.6 90.1413 20.04C89.5946 19.4667 88.9213 19.18 88.1213 19.18C87.3213 19.18 86.6479 19.4667 86.1013 20.04C85.5679 20.6 85.3013 21.4067 85.3013 22.46C85.3013 23.5133 85.5613 24.3267 86.0813 24.9C86.6146 25.46 87.2813 25.74 88.0813 25.74ZM100.155 28.18C99.2485 28.18 98.4352 28.02 97.7152 27.7C96.9952 27.3667 96.4218 26.92 95.9952 26.36C95.5818 25.8 95.3552 25.18 95.3152 24.5H98.1352C98.1885 24.9267 98.3952 25.28 98.7552 25.56C99.1285 25.84 99.5885 25.98 100.135 25.98C100.668 25.98 101.082 25.8733 101.375 25.66C101.682 25.4467 101.835 25.1733 101.835 24.84C101.835 24.48 101.648 24.2133 101.275 24.04C100.915 23.8533 100.335 23.6533 99.5352 23.44C98.7085 23.24 98.0285 23.0333 97.4952 22.82C96.9752 22.6067 96.5218 22.28 96.1352 21.84C95.7618 21.4 95.5752 20.8067 95.5752 20.06C95.5752 19.4467 95.7485 18.8867 96.0952 18.38C96.4552 17.8733 96.9618 17.4733 97.6152 17.18C98.2818 16.8867 99.0618 16.74 99.9552 16.74C101.275 16.74 102.328 17.0733 103.115 17.74C103.902 18.3933 104.335 19.28 104.415 20.4H101.735C101.695 19.96 101.508 19.6133 101.175 19.36C100.855 19.0933 100.422 18.96 99.8752 18.96C99.3685 18.96 98.9752 19.0533 98.6952 19.24C98.4285 19.4267 98.2952 19.6867 98.2952 20.02C98.2952 20.3933 98.4818 20.68 98.8552 20.88C99.2285 21.0667 99.8085 21.26 100.595 21.46C101.395 21.66 102.055 21.8667 102.575 22.08C103.095 22.2933 103.542 22.6267 103.915 23.08C104.302 23.52 104.502 24.1067 104.515 24.84C104.515 25.48 104.335 26.0533 103.975 26.56C103.628 27.0667 103.122 27.4667 102.455 27.76C101.802 28.04 101.035 28.18 100.155 28.18ZM109.614 18.52C109.974 18.0133 110.467 17.5933 111.094 17.26C111.734 16.9133 112.46 16.74 113.274 16.74C114.22 16.74 115.074 16.9733 115.834 17.44C116.607 17.9067 117.214 18.5733 117.654 19.44C118.107 20.2933 118.334 21.2867 118.334 22.42C118.334 23.5533 118.107 24.56 117.654 25.44C117.214 26.3067 116.607 26.98 115.834 27.46C115.074 27.94 114.22 28.18 113.274 28.18C112.46 28.18 111.74 28.0133 111.114 27.68C110.5 27.3467 110 26.9267 109.614 26.42V33.28H106.814V16.92H109.614V18.52ZM115.474 22.42C115.474 21.7533 115.334 21.18 115.054 20.7C114.787 20.2067 114.427 19.8333 113.974 19.58C113.534 19.3267 113.054 19.2 112.534 19.2C112.027 19.2 111.547 19.3333 111.094 19.6C110.654 19.8533 110.294 20.2267 110.014 20.72C109.747 21.2133 109.614 21.7933 109.614 22.46C109.614 23.1267 109.747 23.7067 110.014 24.2C110.294 24.6933 110.654 25.0733 111.094 25.34C111.547 25.5933 112.027 25.72 112.534 25.72C113.054 25.72 113.534 25.5867 113.974 25.32C114.427 25.0533 114.787 24.6733 115.054 24.18C115.334 23.6867 115.474 23.1 115.474 22.42ZM121.788 15.6C121.295 15.6 120.882 15.4467 120.548 15.14C120.228 14.82 120.068 14.4267 120.068 13.96C120.068 13.4933 120.228 13.1067 120.548 12.8C120.882 12.48 121.295 12.32 121.788 12.32C122.282 12.32 122.688 12.48 123.008 12.8C123.342 13.1067 123.508 13.4933 123.508 13.96C123.508 14.4267 123.342 14.82 123.008 15.14C122.688 15.4467 122.282 15.6 121.788 15.6ZM123.168 16.92V28H120.368V16.92H123.168ZM129.195 19.22V24.58C129.195 24.9533 129.281 25.2267 129.455 25.4C129.641 25.56 129.948 25.64 130.375 25.64H131.675V28H129.915C127.555 28 126.375 26.8533 126.375 24.56V19.22H125.055V16.92H126.375V14.18H129.195V16.92H131.675V19.22H129.195ZM132.969 22.42C132.969 21.3 133.189 20.3067 133.629 19.44C134.082 18.5733 134.689 17.9067 135.449 17.44C136.222 16.9733 137.082 16.74 138.029 16.74C138.855 16.74 139.575 16.9067 140.189 17.24C140.815 17.5733 141.315 17.9933 141.689 18.5V16.92H144.509V28H141.689V26.38C141.329 26.9 140.829 27.3333 140.189 27.68C139.562 28.0133 138.835 28.18 138.009 28.18C137.075 28.18 136.222 27.94 135.449 27.46C134.689 26.98 134.082 26.3067 133.629 25.44C133.189 24.56 132.969 23.5533 132.969 22.42ZM141.689 22.46C141.689 21.78 141.555 21.2 141.289 20.72C141.022 20.2267 140.662 19.8533 140.209 19.6C139.755 19.3333 139.269 19.2 138.749 19.2C138.229 19.2 137.749 19.3267 137.309 19.58C136.869 19.8333 136.509 20.2067 136.229 20.7C135.962 21.18 135.829 21.7533 135.829 22.42C135.829 23.0867 135.962 23.6733 136.229 24.18C136.509 24.6733 136.869 25.0533 137.309 25.32C137.762 25.5867 138.242 25.72 138.749 25.72C139.269 25.72 139.755 25.5933 140.209 25.34C140.662 25.0733 141.022 24.7 141.289 24.22C141.555 23.7267 141.689 23.14 141.689 22.46ZM150.043 13.2V28H147.243V13.2H150.043Z" fill="#1A4FBA"/>
    <defs>
        <linearGradient id="paint0_linear_495_845" x1="27.6318" y1="-6.53952" x2="-4.99407" y2="-6.53952" gradientUnits="userSpaceOnUse">
            <stop stop-color="#1A4FBA"/>
            <stop offset="0.286458" stop-color="#F3C294"/>
            <stop offset="1" stop-color="#F4FAFF"/>
        </linearGradient>
    </defs>
</svg>
